<svg width="1000" height="1000" viewBox="0 0 1000 1000" fill="none" xmlns="http://www.w3.org/2000/svg">
<path d="M354.147 248.297C416.706 223.266 454.026 208.333 499.999 208.333C545.973 208.333 583.293 223.266 645.853 248.297L744.836 287.89C776.653 300.617 802.426 310.925 820.116 320.2C829.069 324.894 837.743 330.216 844.433 336.631C851.306 343.223 858.333 353.219 858.333 366.667C858.333 380.114 851.306 390.111 844.433 396.702C837.743 403.117 829.069 408.439 820.116 413.133C802.426 422.408 776.653 432.716 744.836 445.443L645.853 485.037C583.293 510.067 545.973 525 499.999 525C454.026 525 416.706 510.067 354.147 485.037L255.164 445.443C223.345 432.716 197.573 422.408 179.882 413.133C170.928 408.439 162.254 403.117 155.566 396.702C148.694 390.111 141.666 380.114 141.666 366.667C141.666 353.219 148.694 343.223 155.566 336.631C162.254 330.216 170.928 324.894 179.882 320.2C197.573 310.925 223.345 300.617 255.165 287.89L354.147 248.297Z" fill="currentColor"/>
<path fill-rule="evenodd" clip-rule="evenodd" d="M183.352 481.383L183.305 481.34L183.421 481.44C183.568 481.57 183.842 481.803 184.242 482.137C185.042 482.807 186.348 483.87 188.161 485.27C191.786 488.073 197.431 492.21 205.094 497.18C220.423 507.12 243.807 520.383 275.247 532.957L368.862 570.403C436.357 597.4 464.654 608.333 500.001 608.333C535.348 608.333 563.644 597.4 631.141 570.403L724.754 532.957C756.194 520.383 779.581 507.12 794.907 497.18C802.571 492.21 808.217 488.073 811.841 485.27C813.654 483.87 814.961 482.807 815.761 482.137C816.161 481.803 816.434 481.57 816.581 481.44L816.651 481.383C816.667 481.367 816.687 481.35 816.704 481.333C826.984 472.173 842.744 473.05 851.944 483.307C861.164 493.583 860.307 509.39 850.027 518.61L833.334 500C850.027 518.61 850.034 518.603 850.027 518.61L849.981 518.65L849.924 518.703L849.767 518.84L849.311 519.24C848.941 519.56 848.441 519.99 847.804 520.517C846.537 521.577 844.741 523.037 842.414 524.833C837.764 528.427 830.997 533.367 822.114 539.13C804.344 550.653 778.081 565.48 743.324 579.38L649.707 616.827C648.414 617.347 647.128 617.86 645.854 618.37C583.294 643.4 545.974 658.333 500.001 658.333C454.028 658.333 416.708 643.4 354.148 618.37C352.874 617.86 351.589 617.347 350.293 616.827L256.677 579.38C221.921 565.48 195.658 550.653 177.888 539.13C169.003 533.367 162.236 528.427 157.587 524.833C155.262 523.037 153.465 521.577 152.197 520.517C151.562 519.99 151.06 519.56 150.69 519.24L150.233 518.84L150.079 518.703L150.02 518.65L149.984 518.62C149.979 518.613 149.974 518.61 166.668 500L149.984 518.62C139.706 509.4 138.838 493.583 148.058 483.307C157.259 473.05 173.026 472.18 183.305 481.34M183.3 614.67C173.02 605.507 157.259 606.383 148.058 616.64L183.3 614.67ZM183.3 614.67L183.421 614.773C183.568 614.903 183.842 615.137 184.242 615.47C185.042 616.14 186.348 617.203 188.161 618.603C191.786 621.407 197.431 625.543 205.094 630.513C220.423 640.453 243.807 653.713 275.247 666.29L368.862 703.737C436.357 730.733 464.654 741.667 500.001 741.667C535.348 741.667 563.644 730.733 631.141 703.737L724.754 666.29C756.194 653.713 779.581 640.453 794.907 630.513C802.571 625.543 808.217 621.407 811.841 618.603C813.654 617.203 814.961 616.14 815.761 615.47C816.161 615.137 816.434 614.903 816.581 614.773L816.651 614.717C816.667 614.7 816.687 614.683 816.704 614.667C826.984 605.507 842.744 606.383 851.944 616.64C861.164 626.917 860.307 642.723 850.027 651.943L833.887 633.95C850.027 651.943 850.034 651.937 850.027 651.943L849.981 651.983L849.924 652.037L849.767 652.173L849.311 652.573C848.941 652.893 848.441 653.323 847.804 653.85C846.537 654.91 844.741 656.37 842.414 658.167C837.764 661.76 830.997 666.7 822.114 672.463C804.344 683.987 778.081 698.813 743.324 712.713L649.707 750.16C648.414 750.68 647.128 751.193 645.854 751.703C583.294 776.733 545.974 791.667 500.001 791.667C454.028 791.667 416.708 776.733 354.149 751.703C352.874 751.193 351.589 750.68 350.293 750.16L256.677 712.713C221.921 698.813 195.658 683.987 177.888 672.463C169.003 666.7 162.236 661.76 157.587 658.167C155.262 656.37 153.465 654.91 152.197 653.85C151.562 653.323 151.06 652.893 150.69 652.573L150.233 652.173L150.079 652.037L150.02 651.983L149.984 651.953C149.979 651.947 149.974 651.943 166.668 633.333L149.984 651.953C139.706 642.733 138.838 626.917 148.058 616.64" fill="currentColor"/>
</svg>
