<svg width="1000" height="1000" viewBox="0 0 1000 1000" fill="none" xmlns="http://www.w3.org/2000/svg">
<path d="M500.483 779.867C494.808 779.867 489.763 778.177 485.349 774.797C485.349 774.797 453.192 748.885 416.62 721.283C354.826 675.656 335.279 666.643 330.866 665.516H168.815C158.726 665.516 150.529 658.193 150.529 648.617V351.192C150.529 342.179 158.726 334.293 168.815 334.293H315.102C320.146 332.603 340.954 324.717 410.314 277.962C450.669 250.924 487.241 224.448 487.241 224.448C491.024 221.632 496.069 219.942 501.113 219.942C504.266 219.942 508.049 220.505 511.202 222.195C518.768 225.575 523.813 232.898 523.813 240.784V759.025C523.813 766.911 518.768 774.797 510.571 778.177C506.788 779.304 503.635 779.867 500.483 779.867Z" fill="#3A648C"/>
<path d="M686.653 738.205C676.093 738.205 667.513 730.768 667.513 721.044C667.513 713.607 673.453 708.459 679.393 705.599C761.233 663.268 811.393 585.472 811.393 501.955C811.393 418.438 760.573 340.641 679.393 298.311C672.133 294.879 668.173 289.158 668.173 282.866C668.173 273.713 676.753 265.705 687.313 265.705C691.273 265.705 694.573 266.849 699.193 269.137C792.253 317.188 849.673 406.425 849.673 501.383C849.673 596.912 791.593 685.578 698.533 733.629C693.913 737.061 690.613 738.205 686.653 738.205ZM621.313 642.103C610.753 642.103 602.173 634.667 602.173 624.942C602.173 618.65 605.473 613.501 611.413 610.069C656.293 588.332 684.013 547.146 684.013 502.527C684.013 458.48 656.953 417.866 614.053 395.557C608.113 392.696 604.813 386.976 604.813 380.684C604.813 371.531 613.393 363.523 623.953 363.523C627.253 363.523 632.533 365.239 635.173 366.383C689.293 394.412 723.613 446.468 723.613 501.955C723.613 558.586 688.633 611.213 632.533 639.243C631.213 639.243 625.933 642.103 621.313 642.103Z" fill="#F3CC58"/>
</svg>
