<svg width="1000" height="1000" viewBox="0 0 1000 1000" fill="none" xmlns="http://www.w3.org/2000/svg">
<path d="M738 703.111H587.375V731.833C587.375 754.686 577.853 776.603 560.905 792.762C543.956 808.922 520.969 818 497 818C473.031 818 450.044 808.922 433.095 792.762C416.147 776.603 406.625 754.686 406.625 731.833V703.111H256L298.326 662.756C309.803 651.813 316.25 636.964 316.25 621.511V530.778C316.25 455.755 366.559 391.906 436.75 368.239V358.444C436.75 343.209 443.098 328.598 454.397 317.825C465.696 307.052 481.021 301 497 301C512.979 301 528.304 307.052 539.603 317.825C550.902 328.598 557.25 343.209 557.25 358.444V368.239C592.496 380.129 623.009 402.143 644.589 431.252C666.169 460.361 677.755 495.132 677.75 530.778V621.483C677.749 629.147 679.331 636.737 682.407 643.819C685.482 650.901 689.99 657.336 695.674 662.756L738 703.111Z" fill="#F3CC58"/>
<path d="M593.661 735.388H406.017V746.904C406.017 771.788 415.91 795.657 433.505 813.253C451.101 830.849 474.969 840.741 499.853 840.741C524.736 840.739 548.607 830.847 566.202 813.253C583.793 795.658 593.661 771.785 593.661 746.904V735.388ZM717.128 458.855C717.133 413.909 703.197 370.065 677.255 333.363C651.314 296.663 614.645 268.9 572.278 253.907C560.443 249.719 552.515 238.509 552.515 225.955V211.922C552.512 197.956 546.968 184.558 537.093 174.682C527.216 164.807 513.82 159.261 499.853 159.26C485.888 159.26 472.491 164.81 462.614 174.682C452.738 184.558 447.166 197.956 447.162 211.922V225.955C447.162 238.509 439.263 249.719 427.429 253.907C343.006 283.762 282.55 364.313 282.55 458.855V588.86C282.547 618.855 270.623 647.663 249.39 668.895L242.157 676.129H757.521L750.287 668.895C739.773 658.378 731.44 645.888 725.75 632.147C720.77 620.119 717.908 607.333 717.272 594.358L717.128 588.803V458.855ZM776.387 588.803C776.386 595.889 777.786 602.914 780.496 609.462C783.207 616.011 787.175 621.984 792.186 626.997L850.027 684.81C858.496 693.283 861.034 706.032 856.451 717.101C851.866 728.169 841.057 735.383 829.078 735.388H652.92V746.904C652.92 787.502 636.804 826.442 608.1 855.151C579.392 883.859 540.452 899.999 499.853 900C459.252 900 420.316 883.86 391.607 855.151C362.899 826.442 346.757 787.505 346.757 746.904V735.388H170.629C158.645 735.388 147.842 728.172 143.256 717.101C138.67 706.029 141.206 693.284 149.68 684.81L207.492 626.997C217.612 616.877 223.288 603.137 223.291 588.86V458.855C223.291 345.876 291.071 248.751 388.077 205.816C389.578 178.361 401.144 152.329 420.687 132.784C441.678 111.792 470.167 100 499.853 100C529.536 100.002 558.001 111.796 578.991 132.784C598.529 152.322 610.063 178.342 611.572 205.788C657.225 225.96 696.704 258.191 725.664 299.161C758.674 345.868 776.394 401.66 776.387 458.855V588.803Z" fill="#3A648C"/>
</svg>
