<svg width="1000" height="1000" viewBox="0 0 1000 1000" fill="none" xmlns="http://www.w3.org/2000/svg">
<path d="M741.58 100C762.711 100 779.841 117.13 779.841 138.261C779.841 157.228 766.04 172.967 747.932 175.993L775.886 316.064L775.887 316.073C778.45 328.929 779.773 342.001 779.84 355.109C779.84 355.174 779.841 355.239 779.841 355.305V717.019L779.832 719.041C779.63 739.907 776.1 760.612 769.373 780.374L769.374 780.375L754.054 825.559C769.06 830.732 779.841 844.976 779.841 861.739C779.841 882.87 762.711 900 741.58 900H259.261C238.13 900 221 882.87 221 861.739C221 844.861 231.929 830.536 247.096 825.453L231.389 778.133L231.389 778.132C224.497 757.801 220.986 736.478 221 715.009V353.295C221 353.23 221.001 353.165 221.001 353.1C221.068 339.991 222.391 326.919 224.954 314.063C224.959 314.034 224.965 314.005 224.971 313.976L252.813 175.977C234.753 172.912 221 157.194 221 138.261C221 117.13 238.13 100 259.261 100H741.58Z" fill="#3A648C"/>
<path d="M621.655 494.69C620.895 491.939 619.564 489.38 617.748 487.179C615.931 484.979 613.671 483.187 611.114 481.92L542.4 447.867L560.845 320.37C561.452 315.951 560.584 311.456 558.376 307.58C556.169 303.705 552.744 300.666 548.634 298.934C544.524 297.202 539.958 296.875 535.642 298.001C531.327 299.128 527.504 301.647 524.765 305.167L382.877 487.595C380.985 490.072 379.691 492.952 379.093 496.01C378.495 499.068 378.611 502.224 379.431 505.23C380.236 508.265 381.735 511.072 383.811 513.429C385.886 515.786 388.481 517.628 391.39 518.811L477.942 553.472L459.496 679.55C458.869 684.075 459.789 688.68 462.107 692.616C464.425 696.553 468.005 699.592 472.266 701.239C474.642 702.224 477.195 702.707 479.766 702.658C483.105 702.64 486.387 701.799 489.322 700.207C492.257 698.616 494.754 696.324 496.59 693.536L618.209 511.108C619.922 508.776 621.116 506.104 621.71 503.272C622.304 500.44 622.285 497.514 621.655 494.69Z" fill="white"/>
</svg>
