<svg width="1000" height="1000" viewBox="0 0 1000 1000" fill="none" xmlns="http://www.w3.org/2000/svg">
<path d="M458.085 331.309C469.663 308.154 497.82 298.767 520.975 310.345C544.13 321.923 553.515 350.08 541.938 373.235L501.993 453.124H573.875C590.121 453.124 605.208 461.536 613.749 475.356C622.29 489.175 623.066 506.432 615.801 520.962L541.938 668.69C530.36 691.845 502.203 701.23 479.048 689.653C455.893 678.075 446.508 649.918 458.085 626.763L498.03 546.874H426.148C409.902 546.874 394.815 538.462 386.274 524.643C377.733 510.823 376.956 493.566 384.221 479.036L458.085 331.309Z" fill="#3A648C"/>
<path d="M795.44 9.94141C821.328 9.94144 842.315 30.9281 842.315 56.8164C842.315 80.0532 825.406 99.3367 803.222 103.044L837.469 274.65L837.471 274.661C840.61 290.411 842.232 306.427 842.314 322.486C842.314 322.566 842.315 322.646 842.315 322.726V765.877L842.304 768.354C842.057 793.919 837.732 819.285 829.49 843.496L829.491 843.497L810.722 898.854C829.106 905.192 842.314 922.643 842.315 943.18C842.315 969.068 821.328 990.055 795.44 990.055H204.53C178.642 990.055 157.655 969.068 157.655 943.18C157.655 922.502 171.045 904.951 189.627 898.725L170.383 840.75L170.384 840.749C161.94 815.841 157.638 789.717 157.655 763.415V320.264C157.655 320.184 157.656 320.104 157.656 320.024C157.738 303.965 159.36 287.949 162.499 272.199C162.506 272.163 162.513 272.128 162.521 272.092L196.631 103.024C174.504 99.269 157.655 80.0123 157.655 56.8164C157.655 30.9281 178.642 9.94143 204.53 9.94141H795.44ZM254.44 290.524C252.478 300.369 251.462 310.379 251.405 320.417V763.476C251.395 779.595 254.042 795.607 259.241 810.865C259.281 810.982 259.321 811.099 259.359 811.216L287.603 896.305H712.595L740.729 813.327C745.927 798.069 748.575 782.057 748.565 765.938V322.879C748.508 312.845 747.492 302.839 745.531 292.998L707.752 103.691H292.135L254.44 290.524Z" fill="#3A648C"/>
</svg>
