<svg width="1000" height="1000" viewBox="0 0 1000 1000" fill="none" xmlns="http://www.w3.org/2000/svg">
<path d="M795.44 9.94141C821.329 9.94144 842.315 30.9281 842.315 56.8164C842.315 80.0532 825.407 99.3367 803.223 103.044L837.47 274.65L837.472 274.661C840.611 290.411 842.232 306.427 842.315 322.486C842.315 322.566 842.315 322.646 842.315 322.726V765.877L842.305 768.354C842.058 793.919 837.733 819.285 829.491 843.496L829.492 843.497L810.723 898.854C829.107 905.192 842.315 922.643 842.315 943.18C842.315 969.068 821.329 990.055 795.44 990.055H204.531C178.643 990.055 157.656 969.068 157.656 943.18C157.656 922.502 171.046 904.951 189.628 898.725L170.384 840.75L170.385 840.749C161.941 815.841 157.639 789.717 157.656 763.415V320.264C157.656 320.184 157.657 320.104 157.657 320.024C157.739 303.965 159.361 287.949 162.5 272.199C162.507 272.163 162.514 272.128 162.522 272.092L196.632 103.024C174.505 99.269 157.656 80.0123 157.656 56.8164C157.656 30.9281 178.643 9.94143 204.531 9.94141H795.44Z" fill="#3A648C"/>
<path d="M648.518 493.492C647.588 490.122 645.957 486.986 643.732 484.29C641.506 481.594 638.737 479.399 635.605 477.847L551.42 436.127L574.018 279.925C574.761 274.511 573.698 269.004 570.993 264.256C568.288 259.508 564.093 255.785 559.058 253.663C554.022 251.542 548.428 251.14 543.141 252.521C537.854 253.901 533.17 256.987 529.815 261.3L355.981 484.8C353.664 487.834 352.078 491.362 351.346 495.109C350.614 498.856 350.755 502.722 351.76 506.405C352.746 510.124 354.583 513.562 357.126 516.45C359.668 519.337 362.847 521.594 366.411 523.043L472.45 565.508L449.851 719.972C449.083 725.516 450.21 731.157 453.05 735.98C455.89 740.803 460.276 744.525 465.496 746.543C468.406 747.75 471.535 748.342 474.685 748.282C478.775 748.26 482.797 747.229 486.392 745.28C489.988 743.33 493.047 740.523 495.296 737.107L644.296 513.607C646.395 510.749 647.858 507.476 648.586 504.006C649.314 500.537 649.291 496.952 648.518 493.492Z" fill="white"/>
</svg>
