<svg width="1000" height="1000" viewBox="0 0 1000 1000" fill="none" xmlns="http://www.w3.org/2000/svg">
<path d="M499.523 160C520.037 160 536.944 175.442 539.254 195.335L539.523 200V240H599.523C765.207 240 899.523 374.314 899.523 540C899.523 702.435 770.423 834.721 609.233 839.846L599.523 840H399.523C233.838 840 99.5234 705.684 99.5234 540C99.5234 377.563 228.622 245.279 389.814 240.154L399.523 240H459.523V200C459.523 177.909 477.431 160 499.523 160ZM639.523 440C617.431 440 599.523 457.908 599.523 480V500H579.523C557.431 500 539.523 517.908 539.523 540C539.523 562.092 557.431 580 579.523 580H599.523V600C599.523 622.092 617.431 640 639.523 640C661.615 640 679.523 622.092 679.523 600V580H699.523C721.615 580 739.523 562.092 739.523 540C739.523 517.908 721.615 500 699.523 500H679.523V480C679.523 457.908 661.615 440 639.523 440ZM359.523 440C304.295 440 259.523 484.772 259.523 540C259.523 595.228 304.295 640 359.523 640C414.752 640 459.523 595.228 459.523 540C459.523 484.772 414.752 440 359.523 440ZM359.523 520C370.569 520 379.523 528.956 379.523 540C379.523 551.044 370.569 560 359.523 560C348.478 560 339.523 551.044 339.523 540C339.523 528.956 348.478 520 359.523 520Z" fill="#3A648C"/>
</svg>
