<svg width="1000" height="1000" viewBox="0 0 1000 1000" fill="none" xmlns="http://www.w3.org/2000/svg">
<path d="M833.957 660.676L729.623 416.676C710.623 372.009 682.29 346.676 649.957 345.009C617.957 343.342 586.957 365.676 563.29 408.342L499.957 522.01C486.623 546.01 467.623 560.343 446.957 562.01C425.956 564.01 404.956 553.01 387.956 531.343L380.622 522.01C356.956 492.343 327.622 478.01 297.622 481.01C267.622 484.01 241.956 504.677 224.956 538.343L167.289 653.343C146.622 695.01 148.622 743.343 172.956 782.677C197.289 822.01 239.622 845.676 285.956 845.676H711.29C755.957 845.676 797.623 823.343 822.29 786.01C847.623 748.676 851.623 701.676 833.957 660.676Z" fill="#3A648C"/>
<path d="M332.329 379.369C394.553 379.369 444.994 328.927 444.994 266.703C444.994 204.479 394.553 154.036 332.329 154.036C270.105 154.036 219.662 204.479 219.662 266.703C219.662 328.927 270.105 379.369 332.329 379.369Z" fill="#3A648C"/>
</svg>
