<svg width="1000" height="1000" viewBox="0 0 1000 1000" fill="none" xmlns="http://www.w3.org/2000/svg">
<path d="M500 109.375C715.71 109.375 890.625 284.279 890.625 499.998C890.625 715.717 715.71 890.622 500 890.622H496.84C434.266 890.37 372.27 874.634 315.2 844.229C305.603 839.116 294.537 837.503 283.898 839.647L282.87 839.867L133.23 873.535L174.782 748.884C179.237 735.519 177.445 720.859 169.901 708.961C131.588 648.529 109.375 576.913 109.375 499.998C109.375 284.279 284.29 109.375 500 109.375ZM305.556 453.123C279.667 453.123 258.681 474.11 258.681 499.998C258.681 525.886 279.667 546.873 305.556 546.873H306.042C331.93 546.873 352.917 525.886 352.917 499.998C352.917 474.11 331.93 453.123 306.042 453.123H305.556ZM500 453.123C474.112 453.123 453.125 474.11 453.125 499.998C453.125 525.886 474.112 546.873 500 546.873H500.486C526.375 546.873 547.361 525.886 547.361 499.998C547.361 474.11 526.374 453.123 500.486 453.123H500ZM694.444 453.123C668.556 453.123 647.57 474.11 647.569 499.998C647.569 525.886 668.556 546.873 694.444 546.873H694.931C720.819 546.873 741.806 525.886 741.806 499.998C741.805 474.11 720.819 453.123 694.931 453.123H694.444Z" stroke="#3A648C" stroke-width="93.75" stroke-linecap="round" stroke-linejoin="round"/>
</svg>
