<svg width="57" height="69" viewBox="0 0 57 69" fill="none" xmlns="http://www.w3.org/2000/svg">
<g filter="url(#filter0_d_164_9584)">
<path opacity="0.997" fill-rule="evenodd" clip-rule="evenodd" d="M28.3139 19.5363C28.3139 23.673 28.3139 27.8098 28.3139 31.9465C25.2537 31.9256 22.1938 31.9465 19.1342 32.0092C14.1624 33.022 11.0404 36.0096 9.76836 40.9722C9.07963 46.9996 11.4572 51.2408 16.9013 53.6959C17.4715 53.8947 18.0505 54.0618 18.638 54.1973C21.8598 54.3744 25.0851 54.4371 28.3139 54.3853C28.3139 56.2657 28.3139 58.146 28.3139 60.0264C23.8065 60.0473 19.2994 60.0264 14.7924 59.9637C11.0053 59.4314 8.06937 57.572 5.98481 54.3853C4.9391 52.6989 4.29817 50.8604 4.06203 48.8697C3.97932 46.4461 3.97932 44.0225 4.06203 41.599C4.29604 39.4907 4.77156 37.4433 5.48861 35.4565C6.40038 33.0696 7.59954 30.8549 9.08608 28.8126C14.0756 22.8032 20.485 19.711 28.3139 19.5363Z" fill="white"/>
<path fill-rule="evenodd" clip-rule="evenodd" d="M28.3145 19.5363C36.1437 19.7111 42.553 22.8033 47.5423 28.8126C49.0285 30.8544 50.2277 33.069 51.1398 35.4565C51.8751 37.4374 52.3507 39.4848 52.5663 41.599C52.6491 44.0644 52.6491 46.5296 52.5663 48.995C52.3529 50.9592 51.7119 52.7561 50.6436 54.3853C48.559 57.572 45.6231 59.4314 41.836 59.9637C37.329 60.0264 32.8218 60.0473 28.3145 60.0264C28.3145 58.146 28.3145 56.2657 28.3145 54.3853C31.2093 54.4063 34.1038 54.3853 36.998 54.3227C42.6685 53.3978 45.9972 50.0758 46.9841 44.3568C47.2968 39.5774 45.4566 35.9211 41.4638 33.3881C40.1428 32.6576 38.7369 32.1979 37.2461 32.0092C34.2691 31.9465 31.2919 31.9256 28.3145 31.9465C28.3145 27.8098 28.3145 23.673 28.3145 19.5363Z" fill="#D8E0E8"/>
<path fill-rule="evenodd" clip-rule="evenodd" d="M28.3139 31.9466C28.3139 33.2001 28.3139 34.4537 28.3139 35.7073C25.295 35.6863 22.2765 35.7073 19.2582 35.7699C14.8203 37.1635 12.8975 40.193 13.4899 44.8583C14.4273 47.9784 16.4742 49.8797 19.6304 50.562C22.5246 50.6247 25.4191 50.6456 28.3139 50.6247C28.3139 51.8782 28.3139 53.1318 28.3139 54.3854C25.0851 54.4371 21.8598 54.3745 18.638 54.1973C18.0505 54.0618 17.4715 53.8947 16.9013 53.6959C11.4572 51.2408 9.07964 46.9996 9.76837 40.9722C11.0404 36.0096 14.1624 33.022 19.1342 32.0093C22.1938 31.9466 25.2537 31.9256 28.3139 31.9466Z" fill="#D8E0E8"/>
<path fill-rule="evenodd" clip-rule="evenodd" d="M28.3145 31.9466C31.2919 31.9256 34.2691 31.9466 37.2461 32.0093C38.7369 32.1979 40.1428 32.6576 41.4638 33.3882C45.4566 35.9211 47.2968 39.5774 46.9841 44.3569C45.9972 50.0759 42.6685 53.3978 36.998 54.3227C34.1038 54.3854 31.2093 54.4063 28.3145 54.3854C28.3145 53.1318 28.3145 51.8782 28.3145 50.6247C31.1679 50.6456 34.021 50.6247 36.8739 50.562C39.9 50.0114 41.9469 48.2774 43.0145 45.3597C43.9237 41.1178 42.4557 38.0465 38.6107 36.146C38.1612 36.0011 37.7064 35.8757 37.2461 35.7699C34.2691 35.7073 31.2919 35.6863 28.3145 35.7073C28.3145 34.4537 28.3145 33.2001 28.3145 31.9466Z" fill="#D8E0E8"/>
<path fill-rule="evenodd" clip-rule="evenodd" d="M28.3134 35.7073C28.3134 40.6798 28.3134 45.6522 28.3134 50.6247C25.4186 50.6456 22.5241 50.6247 19.6299 50.562C16.4737 49.8797 14.4268 47.9784 13.4894 44.8583C12.8971 40.193 14.8198 37.1635 19.2577 35.7699C22.276 35.7073 25.2945 35.6863 28.3134 35.7073Z" fill="#3A648C"/>
<path fill-rule="evenodd" clip-rule="evenodd" d="M28.3145 35.7073C31.2919 35.6863 34.2691 35.7073 37.2461 35.7699C37.7064 35.8757 38.1612 36.0011 38.6107 36.146C42.4557 38.0465 43.9237 41.1178 43.0145 45.3597C41.9469 48.2774 39.9 50.0114 36.8739 50.562C34.021 50.6247 31.1679 50.6456 28.3145 50.6247C28.3145 45.6522 28.3145 40.6798 28.3145 35.7073Z" fill="#3A648C"/>
<path fill-rule="evenodd" clip-rule="evenodd" d="M20.4983 40.5962C21.6885 40.404 22.4948 40.8637 22.9173 41.9751C23.027 42.8629 22.9857 43.7404 22.7933 44.6076C21.8077 45.9919 20.7327 46.0754 19.568 44.8583C19.461 44.6594 19.3783 44.4504 19.3199 44.2315C19.2371 43.4377 19.2371 42.6436 19.3199 41.8498C19.5707 41.2832 19.9636 40.8653 20.4983 40.5962Z" fill="#F3CC58"/>
<path fill-rule="evenodd" clip-rule="evenodd" d="M34.889 40.5962C36.0166 40.4102 36.8229 40.8281 37.308 41.8498C37.4184 42.7792 37.3771 43.6984 37.1839 44.6076C36.2102 45.9897 35.1351 46.0733 33.9586 44.8583C33.8517 44.6594 33.7689 44.4504 33.7105 44.2315C33.6278 43.4794 33.6278 42.7273 33.7105 41.9751C33.9089 41.3366 34.3017 40.8769 34.889 40.5962Z" fill="white"/>
<path d="M45.1501 0C44.815 5.83795 40.019 9.82495 37.2942 12.576C33.6523 15.9384 30.6857 18.9461 28.2658 21.9232C26.1638 24.5094 25.356 29.1256 22.5517 30.0916C18.2697 16.6925 32.6711 1.07891 45.1501 0Z" fill="#48A98B"/>
<path d="M21.3643 30.2974C11.0007 18.6584 15.2036 16.6115 16.1338 4.48969C24.6153 11.8189 17.3852 20.9334 21.3643 30.2974Z" fill="#3A648C"/>
</g>
<defs>
<filter id="filter0_d_164_9584" x="0" y="0" width="56.6279" height="68.0342" filterUnits="userSpaceOnUse" color-interpolation-filters="sRGB">
<feFlood flood-opacity="0" result="BackgroundImageFix"/>
<feColorMatrix in="SourceAlpha" type="matrix" values="0 0 0 0 0 0 0 0 0 0 0 0 0 0 0 0 0 0 127 0" result="hardAlpha"/>
<feOffset dy="4"/>
<feGaussianBlur stdDeviation="2"/>
<feComposite in2="hardAlpha" operator="out"/>
<feColorMatrix type="matrix" values="0 0 0 0 0 0 0 0 0 0 0 0 0 0 0 0 0 0 0.25 0"/>
<feBlend mode="normal" in2="BackgroundImageFix" result="effect1_dropShadow_164_9584"/>
<feBlend mode="normal" in="SourceGraphic" in2="effect1_dropShadow_164_9584" result="shape"/>
</filter>
</defs>
</svg>
