<svg width="1000" height="1000" viewBox="0 0 1000 1000" fill="none" xmlns="http://www.w3.org/2000/svg">
<path d="M771.398 626.87C767.354 623.577 762.701 621.118 757.706 619.634C752.712 618.15 747.474 617.67 742.294 618.223C737.115 618.775 732.095 620.349 727.523 622.854C722.952 625.358 718.919 628.744 715.657 632.816C689.727 665.227 656.87 691.384 619.511 709.358C582.153 727.331 541.246 736.663 499.81 736.663C458.374 736.663 417.467 727.331 380.108 709.358C342.749 691.384 309.893 665.227 283.963 632.816C277.027 625.882 267.772 621.777 257.991 621.295C248.209 620.813 238.597 623.989 231.018 630.208C223.438 636.427 218.43 645.246 216.964 654.956C215.498 664.666 217.679 674.576 223.083 682.766C252.071 719.206 287.944 749.553 328.645 772.07C369.347 794.586 414.078 808.83 460.277 813.985V856.006C460.277 866.52 464.442 876.604 471.856 884.038C479.27 891.473 489.325 895.649 499.81 895.649C510.294 895.649 520.35 891.473 527.763 884.038C535.177 876.604 539.342 866.52 539.342 856.006V813.985C585.541 808.83 630.273 794.586 670.974 772.07C711.676 749.553 747.548 719.206 776.537 682.766C779.865 678.76 782.373 674.135 783.917 669.156C785.46 664.177 786.009 658.941 785.532 653.749C785.054 648.556 783.56 643.51 781.135 638.897C778.709 634.285 775.401 630.198 771.398 626.87Z" fill="#F3CC58"/>
<path d="M499.566 104.35C446.997 104.35 396.582 125.186 359.41 162.275C322.238 199.364 301.355 249.668 301.355 302.12V460.336C301.355 512.787 322.238 563.091 359.41 600.18C396.582 637.269 446.997 658.105 499.566 658.105C552.135 658.105 602.55 637.269 639.722 600.18C676.893 563.091 697.776 512.787 697.776 460.336V302.12C697.776 249.668 676.893 199.364 639.722 162.275C602.55 125.186 552.135 104.35 499.566 104.35Z" fill="#3A648C"/>
</svg>
