<svg width="1000" height="1000" viewBox="0 0 1000 1000" fill="none" xmlns="http://www.w3.org/2000/svg">
<g clip-path="url(#clip0_190_10296)">
<path opacity="0.6" fill-rule="evenodd" clip-rule="evenodd" d="M199.523 233.333H799.523C808.363 233.333 816.842 236.845 823.093 243.097C829.344 249.348 832.856 257.826 832.856 266.667V300H166.189V266.667C166.189 257.826 169.701 249.348 175.953 243.097C182.204 236.845 190.682 233.333 199.523 233.333Z" fill="#3A648C"/>
<path opacity="0.3" fill-rule="evenodd" clip-rule="evenodd" d="M266.191 166.667H732.857C741.698 166.667 750.176 170.178 756.428 176.43C762.679 182.681 766.191 191.159 766.191 200V233.333H232.857V200C232.857 191.159 236.369 182.681 242.621 176.43C248.872 170.178 257.35 166.667 266.191 166.667Z" fill="#3A648C"/>
<path fill-rule="evenodd" clip-rule="evenodd" d="M132.857 300H866.19C875.031 300 883.509 303.512 889.76 309.763C896.012 316.014 899.523 324.493 899.523 333.333V833.333C899.523 842.174 896.012 850.652 889.76 856.904C883.509 863.155 875.031 866.667 866.19 866.667H132.857C124.016 866.667 115.538 863.155 109.287 856.904C103.035 850.652 99.5234 842.174 99.5234 833.333V333.333C99.5234 324.493 103.035 316.014 109.287 309.763C115.538 303.512 124.016 300 132.857 300ZM132.857 366.667V466.667H232.857V366.667H132.857ZM132.857 533.333V633.333H232.857V533.333H132.857ZM132.857 700V800H232.857V700H132.857ZM766.19 366.667V466.667H866.19V366.667H766.19ZM766.19 533.333V633.333H866.19V533.333H766.19ZM766.19 700V800H866.19V700H766.19Z" fill="#3A648C"/>
</g>
<defs>
<clipPath id="clip0_190_10296">
<rect width="800" height="800" fill="white" transform="translate(99.5234 100)"/>
</clipPath>
</defs>
</svg>
