<svg width="1000" height="1000" viewBox="0 0 1000 1000" fill="none" xmlns="http://www.w3.org/2000/svg">
<path d="M823.048 718.591C781.061 718.591 747.086 752.565 747.086 794.553C747.086 836.54 781.061 870.515 823.048 870.515V900H277.854V899.68C221.765 897.435 176 851.968 176 795.238V204.762C176 146.749 225.289 100 283.302 100H823.048V718.591ZM275.934 718.911C236.829 721.797 205.739 754.489 205.739 794.231C205.739 836.219 240.035 870.514 282.022 870.193H750.289C730.416 850.962 717.597 824.038 717.597 794.231C717.597 764.101 730.74 737.181 751.254 717.949L275.934 718.911ZM566.166 330.651C552.006 329.912 538.289 339.822 527.816 358.755L499.791 409.195C493.891 419.845 485.484 426.206 476.339 426.945C467.046 427.833 457.753 422.951 450.23 413.337L446.985 409.195C436.513 396.031 423.533 389.671 410.258 391.002C396.983 392.333 385.626 401.504 378.104 416.443L352.586 467.475C343.441 485.964 344.325 507.412 355.093 524.866C365.86 542.32 384.593 552.822 405.096 552.822H593.306C613.071 552.822 631.509 542.912 642.424 526.346C653.634 509.779 655.403 488.922 647.586 470.729L601.419 362.453C593.011 342.632 580.474 331.391 566.166 330.651ZM425.615 245.907C398.081 245.907 375.761 268.291 375.761 295.903C375.761 323.515 398.081 345.898 425.615 345.898C453.149 345.898 475.469 323.515 475.47 295.903C475.47 268.291 453.15 245.907 425.615 245.907Z" fill="#3A648C"/>
</svg>
