<svg width="1000" height="1000" viewBox="0 0 1000 1000" fill="none" xmlns="http://www.w3.org/2000/svg">
<path fill-rule="evenodd" clip-rule="evenodd" d="M540 380C540 357.909 522.092 340 500 340C477.908 340 460 357.909 460 380V460H380C357.909 460 340 477.908 340 500C340 522.092 357.909 540 380 540H460V620C460 642.092 477.908 660 500 660C522.092 660 540 642.092 540 620V540H620C642.092 540 660 522.092 660 500C660 477.908 642.092 460 620 460H540V380ZM310.003 115.513C361.951 103.968 424.972 100 500 100C575.028 100 638.048 103.968 689.996 115.513C742.4 127.159 785.952 147.04 819.456 180.543C852.96 214.046 872.84 257.601 884.488 310.003C896.032 361.951 900 424.972 900 500C900 575.028 896.032 638.048 884.488 689.996C872.84 742.4 852.96 785.952 819.456 819.456C785.952 852.96 742.4 872.84 689.996 884.488C638.048 896.032 575.028 900 500 900C424.972 900 361.951 896.032 310.003 884.488C257.601 872.84 214.046 852.96 180.543 819.456C147.04 785.952 127.159 742.4 115.513 689.996C103.968 638.048 100 575.028 100 500C100 424.972 103.968 361.951 115.513 310.003C127.159 257.601 147.04 214.046 180.543 180.543C214.046 147.04 257.601 127.159 310.003 115.513Z" fill="url(#paint0_linear_188_10191)"/>
<defs>
<linearGradient id="paint0_linear_188_10191" x1="500" y1="100" x2="900" y2="932.5" gradientUnits="userSpaceOnUse">
<stop stop-color="#3A648C"/>
<stop offset="1" stop-color="#C9C9C9"/>
</linearGradient>
</defs>
</svg>
