<svg width="1000" height="1000" viewBox="0 0 1000 1000" fill="none" xmlns="http://www.w3.org/2000/svg">
<path d="M856.04 570.968L796.75 513.978C796.903 509.216 797.057 504.608 797.057 500C797.057 495.392 796.903 490.783 796.75 485.868L856.04 428.418C867.984 416.903 875.716 401.713 878 385.28C880.284 368.848 876.987 352.124 868.635 337.788L824.859 261.751C816.574 247.324 803.676 236.101 788.242 229.888C772.808 223.674 755.734 222.833 739.764 227.496L660.659 250.538C652.825 245.469 644.684 240.707 636.39 236.406L616.268 156.529C612.34 140.362 603.081 125.99 589.982 115.734C576.885 105.477 560.712 99.9345 544.075 100.001H456.369C439.725 99.9891 423.558 105.571 410.465 115.85C397.374 126.129 388.115 140.509 384.176 156.682L364.362 236.406C356.067 240.707 347.926 245.469 340.093 250.538L260.681 227.803C244.735 223.241 227.722 224.151 212.353 230.387C196.985 236.624 184.149 247.828 175.893 262.212L131.809 338.402C123.58 352.833 120.396 369.593 122.761 386.035C125.125 402.476 132.904 417.66 144.865 429.186L204.309 486.175C204.002 490.937 203.848 495.392 203.848 500C203.848 504.608 204.002 509.524 204.309 514.286L145.019 571.582C133.034 583.067 125.261 598.25 122.948 614.689C120.636 631.127 123.919 647.866 132.27 662.212L176.046 738.402C184.345 752.812 197.251 764.012 212.686 770.196C228.122 776.382 245.188 777.195 261.141 772.504L340.4 749.616C348.226 754.717 356.328 759.384 364.669 763.594L384.637 843.778C388.648 859.875 397.939 874.162 411.027 884.354C424.114 894.546 440.242 900.055 456.83 900H544.536C561.179 900.024 577.35 894.47 590.465 884.222C603.579 873.975 612.881 859.626 616.882 843.471L636.543 763.594C644.886 759.331 652.988 754.614 660.812 749.462L740.224 772.196C756.191 776.795 773.238 775.903 788.638 769.665C804.038 763.427 816.901 752.202 825.166 737.788L869.096 661.751C877.389 647.339 880.61 630.564 878.243 614.106C875.876 597.646 868.058 582.458 856.04 570.968ZM620.415 500C620.446 523.697 613.448 546.871 600.309 566.593C587.17 586.313 568.478 601.693 546.596 610.789C524.716 619.886 500.629 622.29 477.383 617.697C454.137 613.104 432.774 601.72 415.996 584.984C399.22 568.25 387.781 546.915 383.129 523.679C378.476 500.444 380.819 476.349 389.858 454.444C398.899 432.539 414.23 413.806 433.916 400.616C453.601 387.425 476.757 380.369 500.453 380.338C532.22 380.355 562.687 392.966 585.175 415.407C607.662 437.849 620.334 468.292 620.415 500.061V500Z" fill="url(#paint0_linear_189_10212)"/>
<defs>
<linearGradient id="paint0_linear_189_10212" x1="500.5" y1="100" x2="914.157" y2="914.648" gradientUnits="userSpaceOnUse">
<stop stop-color="#3A648C"/>
<stop offset="1" stop-color="#C9C9C9"/>
</linearGradient>
</defs>
</svg>
