<svg width="1000" height="1000" viewBox="0 0 1000 1000" fill="none" xmlns="http://www.w3.org/2000/svg">
<path d="M203.686 900H493.733V268.721H217.904L203.686 900Z" fill="#6D88A2"/>
<path d="M796.104 900L492.784 899.999V268.719H768.613L796.104 900Z" fill="#3A648C"/>
<rect x="403.686" y="100" width="176.303" height="53.0806" fill="#3A648C"/>
<path d="M344.918 155.925L403.686 100V268.721H344.918V155.925Z" fill="#6D88A2"/>
<path d="M638.756 155.925L579.988 100V268.721H638.756V155.925Z" fill="#3A648C"/>
<path d="M482.148 767.569C482.148 767.569 288.494 715.487 295.954 469.402C295.954 469.402 518.803 554.614 482.148 767.569Z" fill="#FEFEFE"/>
<path d="M523.24 767.568C523.24 767.568 453.117 572.394 682.527 401.422C682.527 401.422 740.257 644.382 523.24 767.568Z" fill="#FEFEFE"/>
</svg>
