<svg width="1000" height="1000" viewBox="0 0 1000 1000" fill="none" xmlns="http://www.w3.org/2000/svg">
<path d="M124.895 899.86H491.895V268.86H142.885L124.895 899.86Z" fill="#6D88A2"/>
<path d="M874.895 899.86L490.895 899.858V268.86H840.092L874.895 899.86Z" fill="#3A648C"/>
<rect x="403.686" y="100" width="176.303" height="53.0806" fill="#3A648C"/>
<path d="M344.918 155.925L403.686 100V268.721H344.918V155.925Z" fill="#6D88A2"/>
<path d="M638.756 155.925L579.988 100V268.721H638.756V155.925Z" fill="#3A648C"/>
<g filter="url(#filter0_d_192_2588)">
<path d="M485.471 709.46C485.471 709.46 353.283 673.909 358.376 505.934C358.376 505.934 510.491 564.099 485.471 709.46Z" fill="#FEFEFE"/>
<path d="M513.521 709.46C513.521 709.46 465.655 576.235 622.248 459.531C622.248 459.531 661.655 625.374 513.521 709.46Z" fill="#FEFEFE"/>
</g>
<defs>
<filter id="filter0_d_192_2588" x="343.632" y="456.931" width="297.968" height="279.129" filterUnits="userSpaceOnUse" color-interpolation-filters="sRGB">
<feFlood flood-opacity="0" result="BackgroundImageFix"/>
<feColorMatrix in="SourceAlpha" type="matrix" values="0 0 0 0 0 0 0 0 0 0 0 0 0 0 0 0 0 0 127 0" result="hardAlpha"/>
<feOffset dy="12"/>
<feGaussianBlur stdDeviation="7.3"/>
<feComposite in2="hardAlpha" operator="out"/>
<feColorMatrix type="matrix" values="0 0 0 0 0 0 0 0 0 0 0 0 0 0 0 0 0 0 0.25 0"/>
<feBlend mode="normal" in2="BackgroundImageFix" result="effect1_dropShadow_192_2588"/>
<feBlend mode="normal" in="SourceGraphic" in2="effect1_dropShadow_192_2588" result="shape"/>
</filter>
</defs>
</svg>
