<svg width="1000" height="1000" viewBox="0 0 1000 1000" fill="none" xmlns="http://www.w3.org/2000/svg">
<path fill-rule="evenodd" clip-rule="evenodd" d="M904.68 207.701L735.801 317.559L733.301 257.594L882.953 125L904.68 207.701ZM55.8734 562.336C55.8734 386.534 195.96 244.016 368.765 244.016C479.308 244.016 576.465 302.339 632.126 390.388L545.015 441.553C506.303 381.869 440.141 342.544 365.04 342.544C245.732 342.544 148.996 441.787 148.996 564.23C148.996 686.674 245.732 785.918 365.04 785.918C484.348 785.918 581.084 686.674 581.084 564.23C581.084 531.993 574.379 501.364 562.321 473.731L649.841 422.323C670.217 464.577 681.656 512.098 681.656 562.336C681.656 738.14 541.57 880.657 368.765 880.657C195.96 880.657 55.8734 738.14 55.8734 562.336ZM698.332 393.841C723.408 444.504 737.529 501.744 737.529 562.336C737.529 769.536 572.427 937.5 368.765 937.5C165.101 937.5 0 769.536 0 562.336C0 355.14 165.101 187.173 368.765 187.173C499.989 187.173 615.207 256.906 680.564 361.935L881.139 244.125C889.758 239.062 900.78 242.066 905.757 250.835C910.733 259.605 907.779 270.818 899.16 275.881L698.332 393.841ZM496.517 470.039C467.5 427.246 419.282 399.387 365.04 399.387C277.021 399.387 204.869 472.74 204.869 564.23C204.869 655.721 277.021 729.075 365.04 729.075C453.059 729.075 525.21 655.721 525.21 564.23C525.21 542.315 521.072 521.443 513.566 502.368L443.549 543.494C445.784 551.259 446.987 559.49 446.987 568.02C446.987 615.207 410.208 653.285 365.04 653.285C319.871 653.285 283.092 615.207 283.092 568.02C283.092 520.836 319.871 482.757 365.04 482.757C389.345 482.757 411.217 493.782 426.24 511.317L496.517 470.039ZM374.631 541.633C371.59 540.311 368.332 539.598 365.04 539.598C351.727 539.598 338.965 551.21 338.965 568.02C338.965 584.834 351.727 596.441 365.04 596.441C376.505 596.441 387.56 587.835 390.41 574.705L383.076 579.013C374.456 584.076 363.435 581.071 358.458 572.302C353.482 563.533 356.435 552.32 365.055 547.257L374.631 541.633ZM761.964 367.259L940.234 272.961L1000 333.986L811.93 399.755L761.964 367.259Z" fill="#3A648C"/>
</svg>
