<svg width="1000" height="1000" viewBox="0 0 1000 1000" fill="none" xmlns="http://www.w3.org/2000/svg">
<path fill-rule="evenodd" clip-rule="evenodd" d="M469.916 100C272.372 114.647 114.647 272.372 100 469.916H219.222C235.837 469.916 249.306 483.384 249.306 500C249.306 516.616 235.837 530.084 219.222 530.084H100C114.647 727.628 272.372 885.352 469.916 900V780.776C469.916 764.164 483.384 750.696 500 750.696C516.616 750.696 530.084 764.164 530.084 780.776V900C727.628 885.352 885.352 727.628 900 530.084H780.776C764.164 530.084 750.696 516.616 750.696 500C750.696 483.384 764.164 469.916 780.776 469.916H900C885.352 272.372 727.628 114.647 530.084 100V219.222C530.084 235.837 516.616 249.306 500 249.306C483.384 249.306 469.916 235.837 469.916 219.222V100ZM389.694 500C389.694 483.384 403.163 469.916 419.778 469.916H469.916V419.778C469.916 403.163 483.384 389.694 500 389.694C516.616 389.694 530.084 403.163 530.084 419.778V469.916H580.224C596.836 469.916 610.304 483.384 610.304 500C610.304 516.616 596.836 530.084 580.224 530.084H530.084V580.224C530.084 596.836 516.616 610.304 500 610.304C483.384 610.304 469.916 596.836 469.916 580.224V530.084H419.778C403.163 530.084 389.694 516.616 389.694 500Z" fill="#3A648C"/>
</svg>
